<svg version="1.2" xmlns="http://www.w3.org/2000/svg" viewBox="0 0 15 15" width="15" height="15"><style>.a{fill:#fff}</style><path fill-rule="evenodd" class="a" d="m0 6.6c0-3.9 3.3-6.6 6.6-6.6 3.4 0 6.7 2.7 6.7 6.6 0 2.2-1.1 4-2.5 5.1 0.4 0.7 0.9 1.2 1.6 1.2 0.8 0 1.1-0.6 1.1-1h1c0.1 0.6-0.2 3.1-3 3.1-1.6 0-2.5-1-3.2-2.1q-0.8 0.2-1.7 0.2c-3.3 0-6.6-2.6-6.6-6.5zm4.7 3.2l-0.4-0.8c0.5-0.5 1.3-0.8 2.3-0.8 1.6 0 2.4 0.8 3.1 1.8q0.6-1.3 0.6-3.4c0-3.5-1.1-5.3-3.7-5.3-2.5 0-3.6 1.8-3.6 5.3 0 3.5 1.1 5.2 3.6 5.2q0.6 0 1.1-0.1c-0.5-1-1.1-2.1-2.3-2.1q-0.3 0-0.7 0.2z"/></svg>